<?xml version="1.0" encoding="utf-8"?>
<!-- Generator: Adobe Illustrator 23.0.1, SVG Export Plug-In . SVG Version: 6.00 Build 0)  -->
<svg version="1.1" id="Layer_1" xmlns="http://www.w3.org/2000/svg" xmlns:xlink="http://www.w3.org/1999/xlink" x="0px" y="0px"
	 viewBox="0 0 800 700" style="enable-background:new 0 0 800 700;" xml:space="preserve">
<style type="text/css">
	.st0{fill:#FFFFFF;stroke:#FFFFFF;stroke-miterlimit:10;}
	.st1{display:none;fill:#FFFFFF;stroke:#FFFFFF;stroke-miterlimit:10;}
	.st2{display:none;}
	.st3{display:inline;}
	.st4{clip-path:url(#SVGID_2_);}
	.st5{fill:#FFFFFF;}
	.st6{display:none;fill:#FFFFFF;}
</style>
<path d="M632.7,564.2H175c-6.6,0-12-5.4-12-12V94.6c0-6.6,5.4-12,12-12h457.7c6.6,0,12,5.4,12,12v457.7
	C644.7,558.8,639.3,564.2,632.7,564.2z"/>
<g id="Right_Leg">
	<path class="st0" d="M441.1,553.3c0,0-15.7,0.2-16.3,1.3c-0.7,1.2-0.2,32.2-0.2,32.2l-44.5-4v-29.5l12.5-2.5L441.1,553.3z"/>
	<polyline class="st0" points="380.1,438.9 408.3,475.3 389.4,533.3 349.6,443.3 380.1,438.9 	"/>
	<path class="st0" d="M436.9,438c0.1,0.4-1.3,0.2-2,0.5c-4.6,1.6-24.7-0.2-38.6,1.2c-16.8,1.6-10,34.3-9.7,38.3s9.7,18.3,9.7,18.3
		v3.7v51l44.8,2.3l-1.5-56c0,0-7.5-12.4-7.7-12.7c-0.2-0.3,0-10.7-0.2-12.9c0-0.6,5-1.4,5-2.3c0-0.6-3.3-1.6-3.2-2.2
		c0.1-0.4,3-0.4,3-0.7c7.9,0,0.4-2.6,0.5-3.2c0.3-1.4-7.1-14.4-4.4-19.3c2.7-4.9,0,0,0,0"/>
	<path class="st0" d="M487.1,582.8l-62.5,4l-44.5-4v-29.5c0,0,10-2.5,12.5-2.5s48.5,2.5,48.5,2.5l-1.5-56c0,0-13.5-20.5-13.5-27
		s4.5-29,12-33s11-9,20-5s16.5,11.5,18,14.5s6,20.5,6,24S487.1,582.8,487.1,582.8z"/>
	<polyline class="st0" points="380.1,438.9 398.6,439.4 398.6,507.1 	"/>
</g>
<g id="Left_Leg">
	<path class="st0" d="M396.3,523.9l-27,51.3l-43.3-1.7l-51.7-42.2l13.3-25.2h22.5l24.4-35.1c0,0-2.1-3.4-1.6-5
		c0.5-1.6,1.4-16.8,13-27.3h34.3c0,0-9.8,20.7-6.5,36.4c0,0,4.2,18.3,21.1,24.1L396.3,523.9z"/>
	<path class="st0" d="M373.6,475.3l-29,43.5c0,0-12.7-11.7-15-11.7s-14,26.7-14,26.7l53.7,41.5l27-51.3l-1.6-24.6"/>
</g>
<g id="Torso">
	<g>
		<g>
			<path class="st0" d="M460.8,270.4c6.4,1.3,14.2,3,17.7,9.2c3,5.3,2.1,12.1,1.4,17.7c-0.3,2-0.2,3.8,0.5,5.7
				c0.4,1.2,1,1.7,0.8,2.9c-0.4,2.3-3.6,4.5-5.4,5.9c-5.9,4.6-12.6,8.2-18.9,12.3c-4.7,3-10.8,6.5-13.4,11.8
				c-1.4,2.9,2.9,5.4,4.3,2.5c3.2-6.4,12.3-10.4,18-14c6.2-3.8,14.1-7.8,18.4-13.9c1.4-1.9,2.3-4.1,1.8-6.5c-0.6-2.7-1.6-4.6-1-7.6
				c0.5-2.8,0.8-5.1,0.4-8c-0.9-5.7-1.5-10.8-5.7-15c-4.7-4.7-11.4-6.4-17.7-7.7C459,264.9,457.7,269.8,460.8,270.4L460.8,270.4z"/>
		</g>
	</g>
	<path class="st1" d="M460.6,254.3c0,0,40.7,12.7,48,36.1c7.3,23.4,16.2,49.2,7.1,69.2c-9.1,20-35.2,48.2-35.2,48.2l1.4,8.7
		l20.7-22.8c0,0,6-9.8,9.3-14.5c3.3-4.7,14.7-32.2,14-38.8c-0.7-6.7-4.7-41.9-7.3-50.1c-2.7-8.2-56.5-48.7-56.5-48.7L460.6,254.3z"
		/>
	<g>
		<g>
			<path class="st0" d="M464.9,254.2c7.8,1.9,15.2,4.7,22,8.9c3.2,2,6.4,4.3,8.7,7.4c2.7,3.8,2.9,8,3.1,12.5
				c0.6,15.6,11.7,27.8,12.6,43.4c1,17-6.2,32.9-14.3,47.4c-2.3,4.1-4.3,8.2-7.3,11.8c-2.7,3.2-5.6,6.4-8.4,9.5
				c-5.5,6.1-12.3,12.1-16.6,19.1c-1.7,2.7,2.6,5.3,4.3,2.5c4.3-6.9,11.1-12.9,16.5-18.9c2.9-3.3,5.9-6.5,8.7-10
				c3.4-4.2,5.8-9.2,8.4-14c8.1-15,15-31.8,13.5-49.2c-0.7-7.7-3.3-14.6-6.5-21.6c-1.8-3.8-3.6-7.6-4.7-11.7
				c-1.3-4.6-1-9.2-1.5-13.9c-1.8-16.9-23-24.8-37.2-28.2C463.1,248.6,461.7,253.5,464.9,254.2L464.9,254.2z"/>
		</g>
	</g>
	<path class="st0" d="M304.3,275.7c0,0-11.9-5.9-14.9-14.4c-3-8.5,4-40.3,4-40.3s7.3,9.5,10,15.3c2.7,5.8-1,17,5.8,19
		c6.8,2,7.8-16,7.8-16l6.2-18.3c0,0,7,8.5,8.3,14.5c1.3,6,6.5,23.5,6,31s-14,18-19.8,18.3S304.3,275.7,304.3,275.7z"/>
	<path class="st0" d="M331.1,440.6l105.2,3.8l50.3,0.4l3.6-158.2l-117.3-17c0,0-8.4,5.5-5.3,7.6c3.1,2.1-2.2,17.2-12.9,6.3
		c-10.7-10.8-17.9-22.2-17.9-22.2s-7.2,7.2-12.4,8.3c-5.2,1-13.9,4.1-18.1,3.6c-4.1-0.5-10.8-1.5-10.8-1.5s13.9,28.9,17.5,38.2
		c3.6,9.3,5.7,15.5,8.3,17s22.7,9.8,22.7,9.8L331.1,440.6z"/>
	<path class="st0" d="M455.6,317.7c0,0-3.1,1.3-4.5,5.9c-1.5,4.6-5,34.2-6.1,36.4c-1.1,2.2-0.9,3.7-4.9,6.5
		c-4.1,2.8-10.4,5.9-10.4,5.9s-29-8.5-34.2-6.3s-29.5,8.5-25,11.1l22.4,6.2l8.9,2.7c0,0,16.7,14-14.1,23.1l-17.7,2
		c0,0,21.2,8.3,26.5,9.4c5.3,1.1,21.9,6.2,24.9,5.9s13-1.1,16.3-7c3.3-5.9,6.6-8.3,6.5-10.6c0,0,10.9-1.5,15.6-3.6
		c4.7-2.1,22.4-8.1,24.3-9.2c1.9-1.1,7.4-5.6,8.5-7.6c1.2-2,4.5-17.1,4.5-20.4c-0.1-3.3,1.1-23.6-0.4-26.1s-3.5-12.3-6.3-15.4
		c-2.8-3.1-8.7-10.1-11.4-11.2c-2.7-1-13-1.5-15.9-0.9C460.2,315.1,457.1,316.6,455.6,317.7z"/>
</g>
<g id="App_Logos" class="st2">
	<g class="st3">
		<g>
			<g>
				<defs>
					<ellipse id="SVGID_1_" cx="523.4" cy="236.6" rx="21.7" ry="19.5"/>
				</defs>
				<clipPath id="SVGID_2_">
					<use xlink:href="#SVGID_1_"  style="overflow:visible;"/>
				</clipPath>
				<g class="st4">
				</g>
			</g>
		</g>
	</g>
</g>
<g id="Head">
	<path class="st0" d="M412.4,247.3c0,0,4.6,22.8-4.1,27.4c-8.7,4.6,49.2,7.2,49.2,7.2s13.3-46.1,9.2-56.3
		c-4.1-10.3-21.1-16.3-33.1-11.3S412.4,247.3,412.4,247.3z"/>
	<path class="st0" d="M369.7,168.9c0,0,9.4-27,30.7-28s62.9-10,76.9,14s38.4,23,38.4,44s-14.3,54-14.3,54s-13.7-24.2-34.7-22.8
		s-27.6,23.6-42.6,21.4s-51-2-60-12s9.2-29.6,9.9-36.6C374.7,195.9,369.7,168.9,369.7,168.9z"/>
	<g class="st2">
		<g class="st3">
			<path class="st0" d="M394.6,187.7c0.6-0.6,1.3-1.1,1.9-1.7c0.5-0.5,1.3-1.4,1.9-1.7c0-0.5,0.2-0.5,0.5,0c0.4,0.2,0.7,0.5,1,0.8
				c0.6,0.6,1.1,1.2,1.5,1.9c0.9,1.3,3,0.1,2.2-1.3c-1-1.5-2.9-4-4.9-4.2c-1.1-0.1-1.9,0.8-2.6,1.5c-1.1,1-2.2,2-3.3,2.9
				C391.6,187,393.4,188.8,394.6,187.7L394.6,187.7z"/>
		</g>
	</g>
	<g class="st2">
		<g class="st3">
			<path class="st0" d="M448.3,188.1c1-0.7,2-1.4,2.9-2.2c0.8-0.6,2-1.8,2.9-2.2c1.7-0.6,2.2,1,3,2.1c0.7,1,1.3,1.9,2,2.9
				c0.9,1.3,3.1,0.1,2.2-1.3c-1.3-2-3.1-6.2-5.8-6.7c-1.3-0.3-2.3,0.5-3.3,1.3c-1.7,1.2-3.4,2.5-5.1,3.8
				C445.7,186.8,447,189,448.3,188.1L448.3,188.1z"/>
		</g>
	</g>
	<g>
		<path class="st0" d="M372.6,302.7"/>
	</g>
</g>
<g class="st2">
	<path class="st3" d="M628.9,555.2H171.2c-6.6,0-12-5.4-12-12V85.5c0-6.6,5.4-12,12-12h457.7c6.6,0,12,5.4,12,12v457.7
		C640.9,549.8,635.5,555.2,628.9,555.2z"/>
	<g id="Right_Leg_1_" class="st3">
		<path class="st0" d="M431.8,585.5c0,0-15.7,0.2-16.3,1.3c-0.7,1.2-0.2,32.2-0.2,32.2l-44.5-4v-29.5l12.5-2.5L431.8,585.5z"/>
		<polyline class="st0" points="370.8,471.1 399,507.5 380.1,565.5 340.3,475.5 370.8,471.1 		"/>
		<path class="st0" d="M427.6,470.2c0.1,0.4-1.3,0.2-2,0.5c-4.6,1.6-24.7-0.2-38.6,1.2c-16.8,1.6-10,34.3-9.7,38.3
			s9.7,18.3,9.7,18.3v3.7v51l44.8,2.3l-1.5-56c0,0-7.5-12.4-7.7-12.7s0-10.7-0.2-12.9c0-0.6,5-1.4,5-2.3c0-0.6-3.3-1.6-3.2-2.2
			c0.1-0.4,3-0.4,3-0.7c7.9,0,0.4-2.6,0.5-3.2c0.3-1.4-7.1-14.4-4.4-19.3s0,0,0,0"/>
		<path class="st0" d="M477.8,615l-62.5,4l-44.5-4v-29.5c0,0,10-2.5,12.5-2.5s48.5,2.5,48.5,2.5l-1.5-56c0,0-13.5-20.5-13.5-27
			s4.5-29,12-33s11-9,20-5s16.5,11.5,18,14.5s6,20.5,6,24S477.8,615,477.8,615z"/>
		<polyline class="st0" points="370.8,471.1 389.3,471.6 389.3,539.3 		"/>
	</g>
	<g id="Left_Leg_1_" class="st3">
		<path class="st0" d="M387,556.1l-27,51.3l-43.3-1.7L265,563.5l13.3-25.2h22.5l24.4-35.1c0,0-2.1-3.4-1.6-5s1.4-16.8,13-27.3h34.3
			c0,0-9.8,20.7-6.5,36.4c0,0,4.2,18.3,21.1,24.1L387,556.1z"/>
		<path class="st0" d="M364.3,507.5l-29,43.5c0,0-12.7-11.7-15-11.7s-14,26.7-14,26.7l53.7,41.5l27-51.3l-1.6-24.6"/>
	</g>
	<g id="Torso_1_" class="st3">
		<g>
			<g>
				<path class="st5" d="M451.5,302.6c6.4,1.3,14.2,3,17.7,9.2c3,5.3,2.1,12.1,1.4,17.7c-0.3,2-0.2,3.8,0.5,5.7
					c0.4,1.2,1,1.7,0.8,2.9c-0.4,2.3-3.6,4.5-5.4,5.9c-5.9,4.6-12.6,8.2-18.9,12.3c-4.7,3-10.8,6.5-13.4,11.8
					c-1.4,2.9,2.9,5.4,4.3,2.5c3.2-6.4,12.3-10.4,18-14c6.2-3.8,14.1-7.8,18.4-13.9c1.4-1.9,2.3-4.1,1.8-6.5c-0.6-2.7-1.6-4.6-1-7.6
					c0.5-2.8,0.8-5.1,0.4-8c-0.9-5.7-1.5-10.8-5.7-15c-4.7-4.7-11.4-6.4-17.7-7.7C449.7,297.1,448.4,302,451.5,302.6L451.5,302.6z"
					/>
			</g>
		</g>
		<path class="st6" d="M451.3,286.5c0,0,40.7,12.7,48,36.1s16.2,49.2,7.1,69.2c-9.1,20-35.2,48.2-35.2,48.2l1.4,8.7l20.7-22.8
			c0,0,6-9.8,9.3-14.5s14.7-32.2,14-38.8c-0.7-6.7-4.7-41.9-7.3-50.1c-2.7-8.2-56.5-48.7-56.5-48.7L451.3,286.5z"/>
		<g>
			<g>
				<path class="st5" d="M455.6,286.4c7.8,1.9,15.2,4.7,22,8.9c3.2,2,6.4,4.3,8.7,7.4c2.7,3.8,2.9,8,3.1,12.5
					c0.6,15.6,11.7,27.8,12.6,43.4c1,17-6.2,32.9-14.3,47.4c-2.3,4.1-4.3,8.2-7.3,11.8c-2.7,3.2-5.6,6.4-8.4,9.5
					c-5.5,6.1-12.3,12.1-16.6,19.1c-1.7,2.7,2.6,5.3,4.3,2.5c4.3-6.9,11.1-12.9,16.5-18.9c2.9-3.3,5.9-6.5,8.7-10
					c3.4-4.2,5.8-9.2,8.4-14c8.1-15,15-31.8,13.5-49.2c-0.7-7.7-3.3-14.6-6.5-21.6c-1.8-3.8-3.6-7.6-4.7-11.7
					c-1.3-4.6-1-9.2-1.5-13.9c-1.8-16.9-23-24.8-37.2-28.2C453.8,280.8,452.4,285.7,455.6,286.4L455.6,286.4z"/>
			</g>
		</g>
		<path class="st5" d="M295,307.9c0,0-11.9-5.9-14.9-14.4s4-40.3,4-40.3s7.3,9.5,10,15.3s-1,17,5.8,19s7.8-16,7.8-16l6.2-18.3
			c0,0,7,8.5,8.3,14.5s6.5,23.5,6,31s-14,18-19.8,18.3S295,307.9,295,307.9z"/>
		<path class="st5" d="M321.8,472.8l105.2,3.8l50.3,0.4l3.6-158.2l-117.3-17c0,0-8.4,5.5-5.3,7.6s-2.2,17.2-12.9,6.3
			c-10.7-10.8-17.9-22.2-17.9-22.2s-7.2,7.2-12.4,8.3c-5.2,1-13.9,4.1-18.1,3.6c-4.1-0.5-10.8-1.5-10.8-1.5s13.9,28.9,17.5,38.2
			c3.6,9.3,5.7,15.5,8.3,17s22.7,9.8,22.7,9.8L321.8,472.8z"/>
		<path class="st5" d="M446.3,349.9c0,0-3.1,1.3-4.5,5.9c-1.5,4.6-5,34.2-6.1,36.4c-1.1,2.2-0.9,3.7-4.9,6.5
			c-4.1,2.8-10.4,5.9-10.4,5.9s-29-8.5-34.2-6.3s-29.5,8.5-25,11.1l22.4,6.2l8.9,2.7c0,0,16.7,14-14.1,23.1l-17.7,2
			c0,0,21.2,8.3,26.5,9.4s21.9,6.2,24.9,5.9c3-0.3,13-1.1,16.3-7s6.6-8.3,6.5-10.6c0,0,10.9-1.5,15.6-3.6s22.4-8.1,24.3-9.2
			s7.4-5.6,8.5-7.6c1.2-2,4.5-17.1,4.5-20.4c-0.1-3.3,1.1-23.6-0.4-26.1s-3.5-12.3-6.3-15.4s-8.7-10.1-11.4-11.2
			c-2.7-1-13-1.5-15.9-0.9S447.8,348.8,446.3,349.9z"/>
	</g>
	<g id="Head_1_" class="st3">
		<path class="st5" d="M403.1,279.5c0,0,4.6,22.8-4.1,27.4s49.2,7.2,49.2,7.2s13.3-46.1,9.2-56.3c-4.1-10.3-21.1-16.3-33.1-11.3
			S403.1,279.5,403.1,279.5z"/>
		<path class="st5" d="M360.4,201.1c0,0,9.4-27,30.7-28s62.9-10,76.9,14s38.4,23,38.4,44s-14.3,54-14.3,54s-13.7-24.2-34.7-22.8
			s-27.6,23.6-42.6,21.4s-51-2-60-12s9.2-29.6,9.9-36.6C365.4,228.1,360.4,201.1,360.4,201.1z"/>
		<path class="st5" d="M376.4,213.6c0,0,8.8-12.4,14.4-10.4s10.5,12.8,10.5,12.8s5.8,12-3.6,10.3c-9.3-1.7-13.2,4.4-18.3,0
			C374.5,221.9,376.4,213.6,376.4,213.6z"/>
		<path class="st5" d="M432.2,213.6c0,0,8.8-12.4,14.4-10.4s10.5,12.8,10.5,12.8s5.8,12-3.6,10.3c-9.3-1.7-13.2,4.4-18.3,0
			C430.3,221.9,432.2,213.6,432.2,213.6z"/>
		<g class="st2">
			<g class="st3">
				<path class="st5" d="M385.3,219.9c0.6-0.6,1.3-1.1,1.9-1.7c0.5-0.5,1.3-1.4,1.9-1.7c0-0.5,0.2-0.5,0.5,0c0.4,0.2,0.7,0.5,1,0.8
					c0.6,0.6,1.1,1.2,1.5,1.9c0.9,1.3,3,0.1,2.2-1.3c-1-1.5-2.9-4-4.9-4.2c-1.1-0.1-1.9,0.8-2.6,1.5c-1.1,1-2.2,2-3.3,2.9
					C382.3,219.2,384.1,221,385.3,219.9L385.3,219.9z"/>
			</g>
		</g>
		<g class="st2">
			<g class="st3">
				<path class="st5" d="M439,220.3c1-0.7,2-1.4,2.9-2.2c0.8-0.6,2-1.8,2.9-2.2c1.7-0.6,2.2,1,3,2.1c0.7,1,1.3,1.9,2,2.9
					c0.9,1.3,3.1,0.1,2.2-1.3c-1.3-2-3.1-6.2-5.8-6.7c-1.3-0.3-2.3,0.5-3.3,1.3c-1.7,1.2-3.4,2.5-5.1,3.8
					C436.4,219,437.7,221.2,439,220.3L439,220.3z"/>
			</g>
		</g>
		<g>
			<g>
				<path class="st5" d="M382.9,222.9c0.6-8,11.5-8.7,13.4-1c0.4,1.6,2.8,0.9,2.4-0.7c-1.1-4.4-5.2-7.8-9.9-7.4
					c-4.7,0.4-8.1,4.6-8.4,9.1C380.3,224.5,382.8,224.5,382.9,222.9L382.9,222.9z"/>
			</g>
		</g>
		<g>
			<g>
				<path class="st5" d="M438.5,221.7c1.3-8.3,12.6-8.2,13.8,0.1c0.2,1.6,2.6,0.9,2.4-0.7c-1.5-10.7-17-10.8-18.6-0.1
					C435.9,222.6,438.3,223.3,438.5,221.7L438.5,221.7z"/>
			</g>
		</g>
		<g>
			<g>
				<path class="st5" d="M382.5,223.9c1.9-1.1,2.5-2.9,4.1-4.3c3.3-2.9,6.9,0.2,9.3,2.6c0.3-0.7,0.6-1.4,0.9-2.1
					c-3-0.3-4.2-4.1-7.6-3.4c-2.7,0.5-3.7,3.8-6.5,4.6c-1.5,0.5-0.9,2.9,0.7,2.4c1-0.3,2-0.7,2.9-1.4c1-0.7,1.6-2.2,2.6-2.8
					c1.9-1.1,3.4,1,4.8,1.9c1,0.7,1.9,1,3.1,1.1c1.1,0.1,1.6-1.4,0.9-2.1c-2.4-2.4-5.3-4.9-8.9-4.5c-3.9,0.4-4.4,4.1-7.4,5.9
					C379.8,222.6,381.1,224.7,382.5,223.9L382.5,223.9z"/>
			</g>
		</g>
		<g>
			<g>
				<path class="st5" d="M438.9,222.1c1.4-1.9,3.5-3.8,5.9-4.2c2-0.4,5.9,1.8,6.8,4c0.6-0.5,1.2-0.9,1.8-1.4
					c-2.2-1.3-3.6-4.4-6.5-4.4c-3,0-6.5,2.8-9.1,4.2c-1.4,0.8-0.2,2.9,1.3,2.2c2.4-1.3,5-3.3,7.7-3.2c2,0.1,1.8,0.5,3.1,1.7
					c0.7,0.6,1.4,1.1,2.2,1.6c0.9,0.5,2.3-0.4,1.8-1.4c-1.1-2.8-5.2-6.2-8.4-6c-3.7,0.2-6.9,2.8-8.9,5.7
					C435.9,222.2,438,223.4,438.9,222.1L438.9,222.1z"/>
			</g>
		</g>
		<g>
			<g>
				<path class="st5" d="M379.3,340.9c6.4,0,6.4-10,0-10S372.9,340.9,379.3,340.9L379.3,340.9z"/>
			</g>
		</g>
		<g>
			<path class="st5" d="M363.3,334.9"/>
			<g>
				<path class="st5" d="M363.3,342.4c9.7,0,9.7-15,0-15S353.6,342.4,363.3,342.4L363.3,342.4z"/>
			</g>
		</g>
	</g>
</g>
</svg>
